<svg xmlns="http://www.w3.org/2000/svg" viewBox="0 0 900 240" width="100%" height="auto">
  <defs>
    <linearGradient id="blueGrad" x1="0%" y1="0%" x2="100%" y2="100%">
      <stop offset="0%" stop-color="#0085CA" />
      <stop offset="100%" stop-color="#00B0FF" />
    </linearGradient>
    <linearGradient id="darkGrad" x1="0%" y1="0%" x2="0%" y2="100%">
      <stop offset="0%" stop-color="#05070A" />
      <stop offset="100%" stop-color="#0A0D14" />
    </linearGradient>
    <linearGradient id="cometGrad" x1="0%" y1="0%" x2="100%" y2="100%">
      <stop offset="0%" stop-color="#FFFFFF" stop-opacity="1" />
      <stop offset="40%" stop-color="#4FC3F7" stop-opacity="0.8" />
      <stop offset="100%" stop-color="#0085CA" stop-opacity="0" />
    </linearGradient>
    <linearGradient id="meteorGrad" x1="100%" y1="100%" x2="0%" y2="0%">
      <stop offset="0%" stop-color="#4FC3F7" stop-opacity="1" />
      <stop offset="40%" stop-color="#0085CA" stop-opacity="0.6" />
      <stop offset="100%" stop-color="#0085CA" stop-opacity="0" />
    </linearGradient>
    <filter id="glow" x="-20%" y="-20%" width="140%" height="140%">
      <feGaussianBlur stdDeviation="8" result="blur" />
      <feComposite in="SourceGraphic" in2="blur" operator="over" />
    </filter>
    <filter id="holeGlow" x="-40%" y="-40%" width="180%" height="180%">
      <feGaussianBlur stdDeviation="16" result="blur" />
      <feComposite in="SourceGraphic" in2="blur" operator="over" />
    </filter>
    <filter id="nebulaGlow" x="-50%" y="-50%" width="200%" height="200%">
      <feGaussianBlur stdDeviation="28" />
    </filter>
    <radialGradient id="redNebula" cx="50%" cy="50%" r="50%">
      <stop offset="0%" stop-color="#FF1744" stop-opacity="0.45" />
      <stop offset="50%" stop-color="#D50000" stop-opacity="0.22" />
      <stop offset="100%" stop-color="#05070A" stop-opacity="0" />
    </radialGradient>
    <radialGradient id="magentaNebula" cx="50%" cy="50%" r="50%">
      <stop offset="0%" stop-color="#E91E63" stop-opacity="0.35" />
      <stop offset="60%" stop-color="#C51162" stop-opacity="0.15" />
      <stop offset="100%" stop-color="#05070A" stop-opacity="0" />
    </radialGradient>
    
    <!-- Generous stepped Clip Path (Wider margins to prevent any character clipping in sans-serif) -->
    <clipPath id="typingClip">
      <rect x="0" y="0" width="0" height="80">
        <animate attributeName="width" 
                 values="0; 38; 60; 70; 93; 105; 139; 161; 186; 208; 224; 247; 269; 291; 330" 
                 keyTimes="0; 0.07; 0.14; 0.21; 0.28; 0.35; 0.42; 0.49; 0.56; 0.63; 0.70; 0.77; 0.84; 0.91; 1" 
                 dur="3.8s" 
                 calcMode="discrete" 
                 repeatCount="1" 
                 fill="freeze" />
      </rect>
    </clipPath>
  </defs>

  <style>
    /* Custom Keyframes */
    @keyframes drawBorder {
      to { stroke-dashoffset: 0; }
    }
    @keyframes fadeIn {
      from { opacity: 0; }
      to { opacity: 1; }
    }
    @keyframes floatElement {
      0%, 100% { transform: translateY(0px); }
      50% { transform: translateY(-6px); }
    }
    @keyframes floatSpaceHole {
      0%, 100% { transform: translate(740px, 120px) scale(1); }
      50% { transform: translate(740px, 122px) scale(1.02); }
    }
    @keyframes rotateAccretion {
      from { transform: rotate(0deg); }
      to { transform: rotate(360deg); }
    }
    @keyframes pullGravity {
      0% { transform: rotate(0deg) scale(1.2); opacity: 0; }
      20% { opacity: 0.6; }
      80% { opacity: 0.6; }
      100% { transform: rotate(360deg) scale(0.65); opacity: 0; }
    }
    @keyframes twinkle {
      0%, 100% { opacity: 0.2; }
      50% { opacity: 1; }
    }
    @keyframes twinkleSlow {
      0%, 100% { opacity: 0.15; }
      50% { opacity: 0.8; }
    }
    @keyframes blink {
      0%, 100% { opacity: 1; }
      50% { opacity: 0; }
    }

    /* Styles */
    .bg-card {
      fill: url(#darkGrad);
      stroke: #21262D;
      stroke-width: 1.5;
    }
    .border-glow {
      stroke: url(#blueGrad);
      stroke-width: 2;
      stroke-dasharray: 2280;
      stroke-dashoffset: 2280;
      animation: drawBorder 2.5s cubic-bezier(0.4, 0, 0.2, 1) forwards;
    }
    .title {
      font-family: -apple-system, BlinkMacSystemFont, 'Segoe UI', Roboto, 'Outfit', 'Inter', sans-serif;
      font-weight: 800;
      font-size: 40px;
      fill: url(#blueGrad);
      filter: drop-shadow(0px 2px 8px rgba(0, 133, 202, 0.4));
    }
    .badge {
      font-family: -apple-system, BlinkMacSystemFont, 'Segoe UI', 'Inter', sans-serif;
      font-weight: 700;
      font-size: 11px;
      letter-spacing: 1.5px;
      text-transform: uppercase;
      fill: #4FC3F7;
      opacity: 0;
      animation: fadeIn 1s ease-out 0.5s forwards;
    }
    .tech-icon {
      animation: floatElement 4s ease-in-out infinite;
      transform-origin: center;
    }
    .star-fast {
      animation: twinkle 2.5s ease-in-out infinite;
    }
    .star-slow {
      animation: twinkleSlow 4.5s ease-in-out infinite;
    }
    .black-hole-bg {
      animation: floatSpaceHole 6s ease-in-out infinite;
      transform-origin: center;
    }
    .accretion-swirl {
      animation: rotateAccretion 35s linear infinite;
      transform-origin: 0px 0px;
    }
    .gravity-pull {
      animation: pullGravity 10s linear infinite;
      transform-origin: 0px 0px;
    }
    .cursor {
      animation: blink 0.8s step-end infinite;
    }
  </style>

  <!-- Background Base Card -->
  <rect class="bg-card" width="100%" height="100%" rx="16" />
  <rect class="border-glow" width="100%" height="100%" rx="16" fill="none" />

  <!-- Starry Background (Twinkling space sky, matching user's high-density star references) -->
  <g id="stars" fill="#ffffff">
    <!-- Blinking Stars (Fast / Twinkling) -->
    <circle class="star-fast" cx="80" cy="40" r="1.5" fill="#E1F5FE" />
    <circle class="star-fast" cx="190" cy="70" r="1" />
    <circle class="star-fast" cx="290" cy="190" r="1.8" fill="#4FC3F7" />
    <circle class="star-fast" cx="420" cy="30" r="1" />
    <circle class="star-fast" cx="550" cy="200" r="1.5" />
    <circle class="star-fast" cx="30" cy="150" r="1" />
    <circle class="star-fast" cx="640" cy="35" r="1.2" />
    <circle class="star-fast" cx="45" cy="85" r="1.2" />
    <circle class="star-fast" cx="150" cy="20" r="0.8" />
    <circle class="star-fast" cx="210" cy="160" r="1.5" />
    <circle class="star-fast" cx="320" cy="115" r="1" fill="#E1F5FE" />
    <circle class="star-fast" cx="480" cy="55" r="1.8" />
    <circle class="star-fast" cx="590" cy="130" r="1" />
    <circle class="star-fast" cx="660" cy="175" r="1.2" />
    <circle class="star-fast" cx="720" cy="25" r="1.5" />
    <circle class="star-fast" cx="810" cy="85" r="0.8" />
    <circle class="star-fast" cx="870" cy="145" r="1.2" />
    
    <!-- Blinking Stars (Slow / Twinkling) -->
    <circle class="star-slow" cx="120" cy="120" r="1.2" />
    <circle class="star-slow" cx="240" cy="45" r="1.5" fill="#4FC3F7" />
    <circle class="star-slow" cx="380" cy="160" r="1" />
    <circle class="star-slow" cx="490" cy="90" r="2" fill="#E1F5FE" />
    <circle class="star-slow" cx="620" cy="180" r="1.2" />
    <circle class="star-slow" cx="850" cy="190" r="1.5" />
    <circle class="star-slow" cx="60" cy="180" r="1" />
    <circle class="star-slow" cx="160" cy="140" r="1.5" fill="#4FC3F7" />
    <circle class="star-slow" cx="310" cy="30" r="1.2" />
    <circle class="star-slow" cx="440" cy="190" r="1.8" />
    <circle class="star-slow" cx="570" cy="75" r="1" />
    <circle class="star-slow" cx="760" cy="210" r="1.5" fill="#E1F5FE" />
    <circle class="star-slow" cx="820" cy="50" r="1.2" />
  </g>

  <!-- Glowing Sparkling Stars (4-point star shapes matching user's high-contrast star reference) -->
  <g fill="#ffffff" filter="url(#glow)">
    <path d="M 180,50 L 181.5,54.5 L 186,56 L 181.5,57.5 L 180,62 L 178.5,57.5 L 174,56 L 178.5,54.5 Z" class="star-fast" />
    <path d="M 390,150 L 391.5,154.5 L 396,156 L 391.5,157.5 L 390,162 L 388.5,157.5 L 384,156 L 388.5,154.5 Z" class="star-slow" fill="#E1F5FE" />
    <path d="M 280,35 L 281,38.5 L 285,40 L 281,41.5 L 280,45 L 279,41.5 L 275,40 L 279,38.5 Z" class="star-fast" />
    <path d="M 520,90 L 521.5,94.5 L 526,96 L 521.5,97.5 L 520,102 L 518.5,97.5 L 514,96 L 518.5,94.5 Z" class="star-slow" />
  </g>

  <!-- Majestic Spiral Galaxy (Via Láctea) centered in the middle of the background, rotating slowly to show its movement -->
  <g id="milky-way-galaxy" opacity="0.8">
    <animateTransform attributeName="transform"
                      type="rotate"
                      from="0 450 120"
                      to="360 450 120"
                      dur="60s"
                      repeatCount="indefinite" />
    
    <!-- Outer Galactic Halo (Extremely soft, wide, gaseous blue, purple, and cyan nebula) -->
    <ellipse cx="450" cy="120" rx="200" ry="100" fill="url(#blueGrad)" opacity="0.18" filter="url(#nebulaGlow)" transform="rotate(-15, 450, 120)" />
    <ellipse cx="450" cy="120" rx="170" ry="85" fill="#D500F9" opacity="0.08" filter="url(#nebulaGlow)" transform="rotate(25, 450, 120)" />
    <ellipse cx="450" cy="120" rx="140" ry="70" fill="#00E5FF" opacity="0.12" filter="url(#nebulaGlow)" transform="rotate(-35, 450, 120)" />
    
    <!-- Swirling 2 Spiral Arms Painted with Overlapping Highly Blurred Gas Blobs (No hard/linear paths at all) -->
    <!-- Arm 1 Gas Clouds -->
    <g>
      <circle cx="490" cy="100" r="30" fill="#00E5FF" opacity="0.32" filter="url(#holeGlow)" />
      <circle cx="530" cy="95" r="35" fill="#FF4081" opacity="0.2" filter="url(#nebulaGlow)" />
      <circle cx="540" cy="125" r="40" fill="#0085CA" opacity="0.25" filter="url(#nebulaGlow)" />
      <circle cx="510" cy="155" r="35" fill="#00E5FF" opacity="0.2" filter="url(#nebulaGlow)" />
      <circle cx="450" cy="178" r="38" fill="#D500F9" opacity="0.16" filter="url(#nebulaGlow)" />
      <circle cx="390" cy="170" r="30" fill="#0085CA" opacity="0.15" filter="url(#nebulaGlow)" />
    </g>

    <!-- Arm 2 Gas Clouds (Symmetric) -->
    <g>
      <circle cx="410" cy="140" r="30" fill="#00E5FF" opacity="0.32" filter="url(#holeGlow)" />
      <circle cx="370" cy="145" r="35" fill="#FF4081" opacity="0.2" filter="url(#nebulaGlow)" />
      <circle cx="360" cy="115" r="40" fill="#0085CA" opacity="0.25" filter="url(#nebulaGlow)" />
      <circle cx="390" cy="85" r="35" fill="#00E5FF" opacity="0.2" filter="url(#nebulaGlow)" />
      <circle cx="450" cy="62" r="38" fill="#D500F9" opacity="0.16" filter="url(#nebulaGlow)" />
      <circle cx="510" cy="70" r="30" fill="#0085CA" opacity="0.15" filter="url(#nebulaGlow)" />
    </g>

    <!-- Ultra-Dense, organic star clouds winding perfectly along the arms (matching user's spiral reference image) -->
    <g fill="#ffffff" opacity="0.9">
      <!-- Arm 1 Stars -->
      <circle cx="465" cy="108" r="1" />
      <circle cx="472" cy="102" r="0.6" />
      <circle cx="480" cy="98" r="1.4" />
      <circle cx="490" cy="92" r="1.8" class="star-fast" fill="#E1F5FE" />
      <circle cx="502" cy="88" r="0.8" />
      <circle cx="515" cy="85" r="1.2" />
      <circle cx="528" cy="88" r="1.5" />
      <circle cx="540" cy="95" r="0.8" />
      <circle cx="548" cy="108" r="1.2" />
      <circle cx="550" cy="120" r="1.8" class="star-slow" />
      <circle cx="545" cy="132" r="1" />
      <circle cx="535" cy="145" r="1.5" />
      <circle cx="522" cy="158" r="0.8" />
      <circle cx="508" cy="168" r="1.3" class="star-fast" />
      <circle cx="490" cy="175" r="1.6" />
      <circle cx="472" cy="178" r="0.8" />
      <circle cx="455" cy="178" r="1.2" />
      <circle cx="438" cy="175" r="1.5" class="star-slow" />
      <circle cx="420" cy="170" r="0.8" />
      <circle cx="402" cy="160" r="1.2" />
      <circle cx="385" cy="150" r="1.6" class="star-fast" />
      <circle cx="370" cy="135" r="1" />
      <circle cx="355" cy="120" r="1.4" />

      <!-- Arm 2 Stars -->
      <circle cx="435" cy="132" r="1" />
      <circle cx="428" cy="138" r="0.6" />
      <circle cx="420" cy="142" r="1.4" />
      <circle cx="410" cy="148" r="1.8" class="star-fast" fill="#E1F5FE" />
      <circle cx="398" cy="152" r="0.8" />
      <circle cx="385" cy="155" r="1.2" />
      <circle cx="372" cy="152" r="1.5" />
      <circle cx="360" cy="145" r="0.8" />
      <circle cx="352" cy="132" r="1.2" />
      <circle cx="350" cy="120" r="1.8" class="star-slow" />
      <circle cx="355" cy="108" r="1" />
      <circle cx="365" cy="95" r="1.5" />
      <circle cx="378" cy="82" r="0.8" />
      <circle cx="392" cy="72" r="1.3" class="star-fast" />
      <circle cx="410" cy="65" r="1.6" />
      <circle cx="428" cy="62" r="0.8" />
      <circle cx="445" cy="62" r="1.2" />
      <circle cx="462" cy="65" r="1.5" class="star-slow" />
      <circle cx="480" cy="70" r="0.8" />
      <circle cx="498" cy="80" r="1.2" />
      <circle cx="515" cy="90" r="1.6" class="star-fast" />
      <circle cx="530" cy="105" r="1" />
      <circle cx="545" cy="120" r="1.4" />
      
      <!-- Core cluster stars (dense stars swirling directly into the nucleus) -->
      <circle cx="455" cy="100" r="0.8" />
      <circle cx="445" cy="140" r="0.8" class="star-fast" />
      <circle cx="468" cy="112" r="1.1" />
      <circle cx="432" cy="128" r="1.1" />
      <circle cx="462" cy="132" r="0.9" class="star-slow" />
      <circle cx="438" cy="108" r="0.9" />
      <circle cx="472" cy="124" r="0.7" />
      <circle cx="428" cy="116" r="0.7" />
    </g>

    <!-- Central Galactic Bulge & Core Nucleus (Extremely soft circular glow with high-blended halo transitions) -->
    <circle cx="450" cy="120" r="55" fill="#00B0FF" opacity="0.25" filter="url(#nebulaGlow)" />
    <circle cx="450" cy="120" r="38" fill="url(#blueGrad)" opacity="0.5" filter="url(#nebulaGlow)" />
    <circle cx="450" cy="120" r="24" fill="#E1F5FE" opacity="0.75" filter="url(#holeGlow)" />
    <circle cx="450" cy="120" r="14" fill="#ffffff" filter="url(#glow)" />
    <circle cx="450" cy="120" r="6" fill="#ffffff" />
  </g>

  <!-- Cosmic Shooting Comet passing diagonally from Left to Right (shifted slightly to the left of its previous path) -->
  <path stroke="url(#cometGrad)" stroke-width="2.2" stroke-linecap="round" fill="none" d="M 0,0 L -80,-45">
    <animateTransform attributeName="transform"
                      type="translate"
                      values="170,-50; 170,-50; 770,260; 770,260"
                      keyTimes="0; 0.02; 0.12; 1"
                      dur="6s"
                      repeatCount="indefinite" />
    <animate attributeName="opacity"
             values="0; 1; 0; 0"
             keyTimes="0; 0.02; 0.12; 1"
             dur="6s"
             repeatCount="indefinite" />
  </path>

  <!-- Extremely Slow Blue Meteor (Falls from left to right, starting at the right of the shield to align with the "s" of Magalhães) -->
  <path stroke="url(#meteorGrad)" stroke-width="2.5" stroke-linecap="round" fill="none" d="M 0,0 L -54,-52">
    <animateTransform attributeName="transform"
                      type="translate"
                      values="140,30; 140,30; 355,240; 355,240"
                      keyTimes="0; 0.05; 0.85; 1"
                      dur="15s"
                      repeatCount="indefinite" />
    <animate attributeName="opacity"
             values="0; 0.8; 0.8; 0; 0"
             keyTimes="0; 0.05; 0.75; 0.85; 1"
             dur="15s"
             repeatCount="indefinite" />
  </path>

  <!-- Breathtaking Lensed Black Hole on the Right (Interstellar Gargantua Style, perfectly integrated 3D wrapping) -->
  <g class="black-hole-bg">
    <!-- Gravitational Lensing Ambient Blue Glow -->
    <circle cx="0" cy="0" r="75" fill="#0085CA" opacity="0.32" filter="url(#holeGlow)" />
    
    <!-- Swirling gravitational pulling effect (Slowly spins and scales inwards to represent the vacuum) -->
    <g class="gravity-pull" opacity="0.6">
      <path d="M 0,0 A 55 55 0 0 0 50 25" stroke="url(#blueGrad)" stroke-width="1.5" stroke-dasharray="3, 3" fill="none" filter="url(#glow)" />
      <path d="M 0,0 A 55 55 0 0 0 -50 -25" stroke="url(#blueGrad)" stroke-width="1.5" stroke-dasharray="3, 3" fill="none" filter="url(#glow)" />
    </g>
    
    <!-- 1. Vertical Lensing Ring (Behind the Event Horizon, thick and snug) -->
    <circle cx="0" cy="0" r="35" fill="none" stroke="url(#blueGrad)" stroke-width="11" filter="url(#glow)" opacity="0.88" />
    <circle cx="0" cy="0" r="33.5" fill="none" stroke="#E1F5FE" stroke-width="2" opacity="0.9" />

    <!-- 2. Back Part of the Accretion Disk (Drawn BEHIND the black sphere to wrap Saturn-style) -->
    <ellipse cx="0" cy="0" rx="64" ry="12" fill="none" stroke="url(#blueGrad)" stroke-width="9" filter="url(#glow)" transform="rotate(-5)" />
    <ellipse cx="0" cy="0" rx="60.5" ry="7" fill="none" stroke="#E1F5FE" stroke-width="2" transform="rotate(-5)" opacity="0.9" />

    <!-- 3. The Pitch-Black Event Horizon (Core hiding the back part of the vertical halo and back accretion disk) -->
    <circle cx="0" cy="0" r="28" fill="#05070A" stroke="#0085CA" stroke-width="1.5" />
    
    <!-- 4. Front Part of the Accretion Disk (Drawn IN FRONT of the black sphere curving downwards for 3D wrapping) -->
    <path d="M -64,0 A 64 12 0 0 0 64,0" fill="none" stroke="url(#blueGrad)" stroke-width="9" filter="url(#glow)" transform="rotate(-5)" />
    <path d="M -60.5,0 A 60.5 7 0 0 0 60.5,0" fill="none" stroke="#E1F5FE" stroke-width="2" transform="rotate(-5)" opacity="0.95" />

    <!-- Swirling background accretion vortex trails -->
    <g class="accretion-swirl" opacity="0.35">
      <path d="M 0,0 Q 30,-30 45,-15 T 80,35" fill="none" stroke="url(#blueGrad)" stroke-width="2" stroke-linecap="round" filter="url(#glow)" />
      <path d="M 0,0 Q -30,30 -45,15 T -80,-35" fill="none" stroke="url(#blueGrad)" stroke-width="2" stroke-linecap="round" filter="url(#glow)" />
    </g>

    <!-- Spiraling Celestial Bodies (Seamlessly pulled into the Black Hole but fade out before they arrive) -->
    <!-- 1. Star / Glowing Sun (Yellow) -->
    <g>
      <animateTransform attributeName="transform" type="rotate" values="0; 360" dur="15s" repeatCount="indefinite" />
      <circle cx="140" cy="0" r="5.5" fill="#FFEA00" filter="url(#glow)">
        <animate attributeName="cx" values="140; 32" dur="15s" repeatCount="indefinite" />
        <animate attributeName="r" values="5.5; 1.5" dur="15s" repeatCount="indefinite" />
        <animate attributeName="opacity" values="0; 0.9; 0.9; 0" keyTimes="0; 0.15; 0.85; 1" dur="15s" repeatCount="indefinite" />
      </circle>
    </g>

    <!-- 2. Cyan Planet -->
    <g>
      <animateTransform attributeName="transform" type="rotate" values="120; 480" dur="10s" repeatCount="indefinite" />
      <circle cx="115" cy="0" r="4.5" fill="#00E5FF" filter="url(#glow)">
        <animate attributeName="cx" values="115; 30" dur="10s" repeatCount="indefinite" />
        <animate attributeName="r" values="4.5; 1.2" dur="10s" repeatCount="indefinite" />
        <animate attributeName="opacity" values="0; 0.9; 0.9; 0" keyTimes="0; 0.15; 0.85; 1" dur="10s" repeatCount="indefinite" />
      </circle>
    </g>

    <!-- 3. Amber Planet -->
    <g>
      <animateTransform attributeName="transform" type="rotate" values="240; 600" dur="12s" repeatCount="indefinite" />
      <circle cx="125" cy="0" r="3.8" fill="#FF9100" filter="url(#glow)">
        <animate attributeName="cx" values="125; 31" dur="12s" repeatCount="indefinite" />
        <animate attributeName="r" values="3.8; 1" dur="12s" repeatCount="indefinite" />
        <animate attributeName="opacity" values="0; 0.9; 0.9; 0" keyTimes="0; 0.15; 0.85; 1" dur="12s" repeatCount="indefinite" />
      </circle>
    </g>
  </g>

  <!-- Logo Icon Group (Floating Developer Shield Logo explicitly on the left, matching user's layout) -->
  <g transform="translate(0, 8)">
    <animateTransform attributeName="transform"
                      type="translate"
                      values="0,8; 0,2; 0,8"
                      dur="4s"
                      repeatCount="indefinite" />
    <!-- Shield / Badge Frame -->
    <path d="M 60,0 L 120,30 L 120,90 C 120,130 90,150 60,160 C 30,150 0,130 0,90 L 0,30 Z" fill="#161B22" stroke="url(#blueGrad)" stroke-width="2" opacity="0.9" />
    
    <!-- Code Brackets { } -->
    <text x="60" y="95" font-family="'Courier New', Courier, monospace" font-size="52" font-weight="900" fill="url(#blueGrad)" text-anchor="middle" dominant-baseline="middle">&lt;/&gt;</text>
    
    <!-- Decorative Tech Dots -->
    <circle cx="25" cy="45" r="4" fill="#4FC3F7" />
    <circle cx="95" cy="45" r="4" fill="#4FC3F7" />
    <circle cx="60" cy="25" r="3.5" fill="#4FC3F7" />
  </g>

  <!-- Text Header Section -->
  <g transform="translate(65, 105)">
    <!-- Badge -->
    <text class="badge" x="0" y="0">DESENVOLVEDOR WEB &amp; MOBILE</text>
    
    <!-- Main Animated Title with original premium sans-serif font and anti-clipping mask -->
    <text class="title" x="0" y="45" clip-path="url(#typingClip)">Caio Magalhães</text>
    
    <!-- Blinking Thick Block Blue Cursor (Calibrated gap, types once at 3.8s, and blinks forever at the end) -->
    <rect class="cursor" y="7" width="14" height="40" fill="#0085CA" rx="1.5">
      <animate attributeName="x" 
               values="0; 34; 54; 64; 87; 99; 133; 155; 180; 202; 218; 241; 263; 285; 308" 
               keyTimes="0; 0.07; 0.14; 0.21; 0.28; 0.35; 0.42; 0.49; 0.56; 0.63; 0.70; 0.77; 0.84; 0.91; 1" 
               dur="3.8s" 
               calcMode="discrete" 
               repeatCount="1" 
               fill="freeze" />
    </rect>
  </g>
</svg>
